/* XPM */
static char *collectible1745807770[] = {
/* columns rows colors chars-per-pixel */
"32 32 3 1 ",
"  c black",
". c #FFAE00",
"X c white",
/* pixels */
"XXXXXXXXXXXXXXXXXXXXXXXXXXXXXXXX",
"X                              X",
"X                              X",
"X                              X",
"X                              X",
"X                              X",
"X                              X",
"X                              X",
"X                              X",
"X                              X",
"X                              X",
"X                              X",
"X                              X",
"X                              X",
"X               XXXXXX         X",
"X              XX....XX        X",
"X              X......X        X",
"X      XXXXXX  XX....XX        X",
"X     XX....XX  XXXXXX         X",
"X     X......X                 X",
"X     XX....XXXXXX             X",
"X      XXXXXX....XX            X",
"X          X......X   XXXXXX   X",
"X          XX....XX  XX....XX  X",
"X   XXXXXX  XXXXXX   X......X  X",
"X  XX....XX          XX....XX  X",
"X  X......X           XXXXXX   X",
"X  XX....XX                    X",
"X   XXXXXX                     X",
"X                              X",
"X                              X",
"XXXXXXXXXXXXXXXXXXXXXXXXXXXXXXXX"
};
