/* XPM */
static char *exit_11745807770[] = {
/* columns rows colors chars-per-pixel */
"32 32 5 1 ",
"  c black",
". c #FFEE85",
"X c #F3E8A6",
"o c #FFF9D8",
"O c white",
/* pixels */
"OOOOOOOOOOOOOOOOOOOOOOOOOOOOOOOO",
"O                              O",
"O                              O",
"O                              O",
"O  OOOOOOOOOOOOOOOOOOOOOOOOOO  O",
"O  OooooooooooooooooooooooooO  O",
"O  OoooXXXXXXXXXXXXXXXXXXoooO  O",
"O  OooXXXXXXXXXXXXXXXXXXXXooO  O",
"O  OoX...XXXXXXXXXXXXXXXXXXoO  O",
"O  OoX.XXXXXXXXXXXXXXXXXXXXoO  O",
"O  OoX.XXXXXXXXXXXXXXXXXXXXoO  O",
"O  OoX..XX.XXX.XXXXXXXXXXXXoO  O",
"O  OoX.XXXX.X.XXXXXXXXXXXXXoO  O",
"O  OoX...XXX.XXXXX.XXXXXXXXoO  O",
"O  OoXXXXXX.X.XXXXXXXXXXXXXoO  O",
"O  OoXXXXX.XXX.XXX.XXXXXXXXoO  O",
"O  OoXXXXXXXXXXXXX.XXXXXXXXoO  O",
"O  OoXXXXXXXXXXXXX.XXXXXXXXoO  O",
"O  OoXXXXXXXXXXXXX.XX.....XoO  O",
"O  OoXXXXXXXXXXXXXXXXXX.XXXoO  O",
"O  OoXXXXXXXXXXXXXXXXXX.XXXoO  O",
"O  OoXXXXXXXXXXXXXXXXXX.XXXoO  O",
"O  OoXXXXXXXXXXXXXXXXXX.XXXoO  O",
"O  OoXXXXXXXXXXXXXXXXXXXXXXoO  O",
"O  OoXXXXXXXXXXXXXXXXXXXXXXoO  O",
"O  OooXXXXXXXXXXXXXXXXXXXXooO  O",
"O  OoooXXXXXXXXXXXXXXXXXXoooO  O",
"O  OooooooooooooooooooooooooO  O",
"O  OOOOOOOOOOOOOOOOOOOOOOOOOO  O",
"O                              O",
"O                              O",
"OOOOOOOOOOOOOOOOOOOOOOOOOOOOOOOO"
};
