/* XPM */
static char *exit_01745807770[] = {
/* columns rows colors chars-per-pixel */
"32 32 4 1 ",
"  c black",
". c #2E2E00",
"X c gray71",
"o c white",
/* pixels */
"oooooooooooooooooooooooooooooooo",
"o                              o",
"o                              o",
"o                              o",
"o  oooooooooooooooooooooooooo  o",
"o  oXXXXXXXXXXXXXXXXXXXXXXXXo  o",
"o  oXo..Xo..Xo..Xo..Xo..Xo.Xo  o",
"o  oXo..Xo..Xo..Xo..Xo..Xo.Xo  o",
"o  oXo..Xo..Xo..Xo..Xo..Xo.Xo  o",
"o  oXo..Xo..Xo..Xo..Xo..Xo.Xo  o",
"o  oXo..Xo..Xo..Xo..Xo..Xo.Xo  o",
"o  oXo..Xo..Xo..Xo..Xo..Xo.Xo  o",
"o  oXo..Xo..Xo..Xo..Xo..Xo.Xo  o",
"o  oXo..Xo..Xo..Xo..Xo..Xo.Xo  o",
"o  oXo..Xo..Xo..Xo..Xo..Xo.Xo  o",
"o  oXo..Xo..Xo..Xo..Xo..Xo.Xo  o",
"o  oXo..Xo..Xo..Xo..Xo..Xo.Xo  o",
"o  oXo..Xo..Xo..Xo..Xo..Xo.Xo  o",
"o  oXo..Xo..Xo..Xo..Xo..Xo.Xo  o",
"o  oXo..Xo..Xo..Xo..Xo..Xo.Xo  o",
"o  oXo..Xo..Xo..Xo..Xo..Xo.Xo  o",
"o  oXo..Xo..Xo..Xo..Xo..Xo.Xo  o",
"o  oXo..Xo..Xo..Xo..Xo..Xo.Xo  o",
"o  oXo..Xo..Xo..Xo..Xo..Xo.Xo  o",
"o  oXo..Xo..Xo..Xo..Xo..Xo.Xo  o",
"o  oXo..Xo..Xo..Xo..Xo..Xo.Xo  o",
"o  oXo..Xo..Xo..Xo..Xo..Xo.Xo  o",
"o  oXXXXXXXXXXXXXXXXXXXXXXXXo  o",
"o  oooooooooooooooooooooooooo  o",
"o                              o",
"o                              o",
"oooooooooooooooooooooooooooooooo"
};
