/* XPM */
static char *_9eea95b874e4fa2ceb5f838b2ce4894mN47yk4WVeMsmifq[] = {
/* columns rows colors chars-per-pixel */
"48 136 3 1 ",
"  c None",
". c #01227C",
"X c white",
/* pixels */
"              ....................              ",
"              ....................              ",
"              ....................              ",
"              ....................              ",
"              ....................              ",
"              ....................              ",
"              ....................              ",
"       ...........................              ",
"       ...........................              ",
"       ...........................              ",
"       ...........................              ",
"       ...........................              ",
"       ...........................              ",
"       ...........................              ",
"       ...........................              ",
"       ...........................              ",
"       ...........................              ",
"       ...........................              ",
"       ...........................              ",
"       ...........................              ",
"       ...........................              ",
"              ....................              ",
"              ....................              ",
"              ....................              ",
"              ....................              ",
"              ....................              ",
"              ....................              ",
"              ....................              ",
"       .......XXXXXXX.......                    ",
"       .......XXXXXXX.......                    ",
"       .......XXXXXXX.......                    ",
"       .......XXXXXXX.......                    ",
"       .......XXXXXXX.......                    ",
"       .......XXXXXXX.......                    ",
"       ...........................              ",
"       ...........................              ",
"       ...........................              ",
"       ...........................              ",
"       ...........................              ",
"       ...........................              ",
"       ...........................              ",
".........................................       ",
".........................................       ",
".........................................       ",
".........................................       ",
".........................................       ",
".........................................       ",
".........................................       ",
".........................................       ",
".........................................       ",
".........................................       ",
".........................................       ",
".........................................       ",
".........................................       ",
".........................................       ",
".........................................       ",
".........................................       ",
".........................................       ",
".........................................       ",
".........................................       ",
".........................................       ",
"................................................",
"................................................",
"................................................",
"................................................",
"................................................",
"................................................",
"................................................",
"................................................",
"................................................",
"................................................",
"................................................",
"................................................",
"................................................",
"................................................",
"..................................       .......",
"..................................       .......",
"..................................       .......",
"..................................       .......",
"..................................       .......",
"..................................       .......",
"..................................       .......",
"       ...........................              ",
"       ...........................              ",
"       ...........................              ",
"       ...........................              ",
"       ...........................              ",
"       ...........................              ",
"       ...........................              ",
"       ...........................              ",
"       ...........................              ",
"       ...........................              ",
"       ...........................              ",
"       ...........................              ",
"       ...........................              ",
"       ..............       ......              ",
"       ..............       ......              ",
"       ..............       ......              ",
"       ..............       ......              ",
"       ..............       ......              ",
"       ..............       ......              ",
"       ..............       ......              ",
"       .......              ......              ",
"       .......              ......              ",
"       .......              ......              ",
"       .......              ......              ",
"       .......              ......              ",
"       .......              ......              ",
"       .......              ......              ",
"       .......              ......              ",
"       .......              ......              ",
"       .......              ......              ",
"       .......              ......              ",
"       .......              ......              ",
"       .......              ......              ",
"       .......                                  ",
"       .......                                  ",
"       .......                                  ",
"       .......                                  ",
"       .......                                  ",
"       .......                                  ",
"       .......                                  ",
"       .......                                  ",
"       .......                                  ",
"       .......                                  ",
"       .......                                  ",
"       .......                                  ",
"       .......                                  ",
"       .......                                  ",
"       .......                                  ",
"       .......                                  ",
"       .......                                  ",
"       .......                                  ",
"       .......                                  ",
"       .......                                  ",
"       .......                                  "
};
