/* XPM */
static char *player_01745807770[] = {
/* columns rows colors chars-per-pixel */
"32 32 4 1 ",
"  c black",
". c #3F3F3F",
"X c #000A64",
"o c white",
/* pixels */
"oooooooooooooooooooooooooooooooo",
"o                              o",
"o                              o",
"o           oooooooooo         o",
"o        ooooXXXXXXXXoo        o",
"o        oXXXXXXXXXXXXooo      o",
"o       oooooooooooXXXXXoo     o",
"o       o.........oXXXXXXoo    o",
"o       o.........oXXXXXXXo    o",
"o       o.o....o..oXXXXXXXoo   o",
"o       o.o....o..oXXXXXXXXo   o",
"o       o.........oXXXXXXXXo   o",
"o       o.........oXXXXoXXoo   o",
"o       o.........oXXXXoooo    o",
"o       oooooooooooXXXXo       o",
"o        oXXXXXXXXXXXXoo       o",
"o       ooXXXXXXXXXXXXo        o",
"o      o ooXXXXXXXXXXooo       o",
"o      o  ooooooXXXXoo  o      o",
"o     o     o  oooooo    o     o",
"o     o     o      o      o    o",
"o    o      o      o      o    o",
"o           o      o           o",
"o           o      o           o",
"o           o      o           o",
"o           o      o           o",
"o           o      o           o",
"o        oooo   oooo           o",
"o                              o",
"o                              o",
"o                              o",
"oooooooooooooooooooooooooooooooo"
};
