/* XPM */
static char *_113891093304acc8bc60629034e3565bOvqo2nYa9Dr2RrS[] = {
/* columns rows colors chars-per-pixel */
"24 68 2 1 ",
"  c None",
". c #01227C",
/* pixels */
"       ..........       ",
"       ..........       ",
"       ..........       ",
"       ..........       ",
"    .............       ",
"    .............       ",
"    .............       ",
"    .............       ",
"    .............       ",
"    .............       ",
"    .............       ",
"       ..........       ",
"       ..........       ",
"       ..........       ",
"    ...    ...          ",
"    ...    ...          ",
"    ...    ...          ",
"    .............       ",
"    .............       ",
"    .............       ",
"    .............       ",
".....................   ",
".....................   ",
".....................   ",
".....................   ",
".....................   ",
".....................   ",
".....................   ",
".....................   ",
".....................   ",
".....................   ",
"........................",
"........................",
"........................",
"........................",
"........................",
"........................",
"........................",
".................    ...",
".................    ...",
".................    ...",
"    .............       ",
"    .............       ",
"    .............       ",
"    .............       ",
"    .............       ",
"    .............       ",
"    .............       ",
"    .......   ...       ",
"    .......   ...       ",
"    .......   ...       ",
"    ...       ...       ",
"    ...       ...       ",
"    ...       ...       ",
"    ...       ...       ",
"    ...       ...       ",
"    ...       ...       ",
"    ...       ...       ",
"    ...                 ",
"    ...                 ",
"    ...                 ",
"    ...                 ",
"    ...                 ",
"    ...                 ",
"    ...                 ",
"    ...                 ",
"    ...                 ",
"    ...                 "
};
